ffmpeg started on 2016-12-02 at 00:27:20
Report written to "Output/x264/results/ffmpeg/old_town_cross_2160p50slower1500k.log"
Command line:
Tools/ffmpeg/ffmpeg -benchmark -y -i Input/y4m/old_town_cross_2160p50.y4m -c:v libx264 -preset slower -b:v 1500k -an Output/x264/encoded/old_town_cross_2160p50slower1500k.mkv
ffmpeg version N-82227-gdb23fde Copyright (c) 2000-2016 the FFmpeg developers
  built with gcc 5.4.0 (Ubuntu 5.4.0-6ubuntu1~16.04.2) 20160609
  configuration: --prefix=/home/jaroslav/ffmpeg_build --pkg-config-flags=--static --extra-cflags=-I/home/jaroslav/ffmpeg_build/include --extra-ldflags=-L/home/jaroslav/ffmpeg_build/lib --bindir=/home/jaroslav/bin --enable-gpl --enable-libass --enable-libfdk-aac --enable-libfreetype --enable-libmp3lame --enable-libopus --enable-libtheora --enable-libvorbis --enable-libvpx --enable-libx264 --enable-libx265 --enable-nvenc --enable-libmfx --enable-libxvid --enable-libgsm --enable-libopencore-amrnb --enable-version3 --enable-nonfree
  libavutil      55. 35.100 / 55. 35.100
  libavcodec     57. 66.101 / 57. 66.101
  libavformat    57. 57.100 / 57. 57.100
  libavdevice    57.  2.100 / 57.  2.100
  libavfilter     6. 66.100 /  6. 66.100
  libswscale      4.  3.100 /  4.  3.100
  libswresample   2.  4.100 /  2.  4.100
  libpostproc    54.  2.100 / 54.  2.100
Input #0, yuv4mpegpipe, from 'Input/y4m/old_town_cross_2160p50.y4m':
  Duration: 00:00:10.00, start: 0.000000, bitrate: 4976642 kb/s
    Stream #0:0: Video: rawvideo (I420 / 0x30323449), yuv420p(progressive), 3840x2160, SAR 1:1 DAR 16:9, 50 fps, 50 tbr, 50 tbn, 50 tbc
[libx264 @ 0x2b17120] using SAR=1/1
[libx264 @ 0x2b17120] DPB size (8 frames, 259200 mbs) > level limit (5 frames, 184320 mbs)
[libx264 @ 0x2b17120] using cpu capabilities: MMX2 SSE2Fast SSSE3 SSE4.2 AVX FMA3 AVX2 LZCNT BMI2
[libx264 @ 0x2b17120] profile High, level 5.2
[libx264 @ 0x2b17120] 264 - core 148 - H.264/MPEG-4 AVC codec - Copyleft 2003-2016 - http://www.videolan.org/x264.html - options: cabac=1 ref=8 deblock=1:0:0 analyse=0x3:0x133 me=umh subme=9 psy=1 psy_rd=1.00:0.00 mixed_ref=1 me_range=16 chroma_me=1 trellis=2 8x8dct=1 cqm=0 deadzone=21,11 fast_pskip=1 chroma_qp_offset=-2 threads=6 lookahead_threads=1 sliced_threads=0 nr=0 decimate=1 interlaced=0 bluray_compat=0 constrained_intra=0 bframes=3 b_pyramid=2 b_adapt=2 b_bias=0 direct=3 weightb=1 open_gop=0 weightp=2 keyint=250 keyint_min=25 scenecut=40 intra_refresh=0 rc_lookahead=60 rc=abr mbtree=1 bitrate=1500 ratetol=1.0 qcomp=0.60 qpmin=0 qpmax=69 qpstep=4 ip_ratio=1.40 aq=1:1.00
Output #0, matroska, to 'Output/x264/encoded/old_town_cross_2160p50slower1500k.mkv':
  Metadata:
    encoder         : Lavf57.57.100
    Stream #0:0: Video: h264 (libx264) (H264 / 0x34363248), yuv420p, 3840x2160 [SAR 1:1 DAR 16:9], q=-1--1, 1500 kb/s, 50 fps, 1k tbn, 50 tbc
    Metadata:
      encoder         : Lavc57.66.101 libx264
    Side data:
      cpb: bitrate max/min/avg: 0/0/1500000 buffer size: 0 vbv_delay: -1
Stream mapping:
  Stream #0:0 -> #0:0 (rawvideo (native) -> h264 (libx264))
Press [q] to stop, [?] for help
frame=   62 fps=0.0 q=0.0 size=       0kB time=00:00:00.00 bitrate=N/A speed=   0x    frame=   67 fps= 17 q=0.0 size=       0kB time=00:00:00.00 bitrate=N/A speed=   0x    frame=   75 fps= 15 q=53.0 size=       1kB time=00:00:00.04 bitrate= 143.6kbits/s speed=0.00846x    frame=   81 fps= 15 q=55.0 size=       1kB time=00:00:00.16 bitrate=  36.6kbits/s speed=0.0301x    frame=   84 fps= 14 q=56.0 size=       1kB time=00:00:00.22 bitrate=  26.6kbits/s speed=0.0359x    frame=   88 fps= 13 q=54.0 size=       1kB time=00:00:00.30 bitrate=  19.6kbits/s speed=0.0445x    frame=   93 fps= 13 q=53.0 size=       1kB time=00:00:00.40 bitrate=  14.7kbits/s speed=0.0545x    frame=   96 fps= 12 q=53.0 size=       1kB time=00:00:00.46 bitrate=  12.8kbits/s speed=0.0573x    frame=  102 fps= 12 q=53.0 size=       1kB time=00:00:00.58 bitrate=  10.1kbits/s speed=0.068x    frame=  104 fps= 11 q=52.0 size=       1kB time=00:00:00.62 bitrate=   9.5kbits/s speed=0.0678x    frame=  107 fps= 11 q=52.0 size=       1kB time=00:00:00.68 bitrate=   8.6kbits/s speed=0.0704x    frame=  111 fps= 11 q=52.0 size=       1kB time=00:00:00.76 bitrate=   7.7kbits/s speed=0.0737x    frame=  116 fps= 11 q=52.0 size=       1kB time=00:00:00.86 bitrate=   6.8kbits/s speed=0.0789x    frame=  119 fps= 10 q=52.0 size=       1kB time=00:00:00.92 bitrate=   6.4kbits/s speed=0.0806x    frame=  123 fps= 10 q=52.0 size=       1kB time=00:00:01.00 bitrate=   5.9kbits/s speed=0.0829x    frame=  126 fps= 10 q=52.0 size=       1kB time=00:00:01.06 bitrate=   5.5kbits/s speed=0.0843x    frame=  131 fps=9.9 q=51.0 size=       1kB time=00:00:01.16 bitrate=   5.1kbits/s speed=0.0879x    frame=  134 fps=9.7 q=52.0 size=       1kB time=00:00:01.22 bitrate=   4.8kbits/s speed=0.0886x    frame=  138 fps=9.5 q=51.0 size=       1kB time=00:00:01.30 bitrate=   4.5kbits/s speed=0.0899x    frame=  143 fps=9.4 q=51.0 size=       1kB time=00:00:01.40 bitrate=   4.2kbits/s speed=0.0925x    frame=  146 fps=9.3 q=51.0 size=       1kB time=00:00:01.46 bitrate=   4.0kbits/s speed=0.0932x    frame=  150 fps=9.2 q=51.0 size=       1kB time=00:00:01.54 bitrate=   3.8kbits/s speed=0.095x    frame=  154 fps=9.1 q=51.0 size=       1kB time=00:00:01.62 bitrate=   3.6kbits/s speed=0.0958x    frame=  158 fps=9.0 q=51.0 size=       1kB time=00:00:01.70 bitrate=   3.5kbits/s speed=0.0972x    frame=  162 fps=8.9 q=51.0 size=       1kB time=00:00:01.78 bitrate=   3.3kbits/s speed=0.0983x    frame=  165 fps=8.9 q=51.0 size=       1kB time=00:00:01.84 bitrate=   3.2kbits/s speed=0.0988x    frame=  169 fps=8.7 q=51.0 size=       1kB time=00:00:01.92 bitrate=   3.1kbits/s speed=0.0992x    frame=  174 fps=8.7 q=51.0 size=       1kB time=00:00:02.02 bitrate=   2.9kbits/s speed=0.101x    frame=  177 fps=8.6 q=51.0 size=       1kB time=00:00:02.08 bitrate=   2.8kbits/s speed=0.101x    frame=  183 fps=8.7 q=51.0 size=       1kB time=00:00:02.20 bitrate=   2.7kbits/s speed=0.104x    frame=  184 fps=8.5 q=51.0 size=       1kB time=00:00:02.22 bitrate=   2.7kbits/s speed=0.103x    frame=  188 fps=8.5 q=51.0 size=       1kB time=00:00:02.30 bitrate=   2.6kbits/s speed=0.104x    frame=  192 fps=8.4 q=51.0 size=       1kB time=00:00:02.38 bitrate=   2.5kbits/s speed=0.105x    frame=  196 fps=8.3 q=51.0 size=       1kB time=00:00:02.46 bitrate=   2.4kbits/s speed=0.105x    frame=  200 fps=8.3 q=51.0 size=       1kB time=00:00:02.54 bitrate=   2.3kbits/s speed=0.106x    frame=  203 fps=8.3 q=51.0 size=       1kB time=00:00:02.60 bitrate=   2.3kbits/s speed=0.106x    frame=  207 fps=8.2 q=51.0 size=       1kB time=00:00:02.68 bitrate=   2.2kbits/s speed=0.107x    frame=  211 fps=8.2 q=51.0 size=       1kB time=00:00:02.76 bitrate=   2.1kbits/s speed=0.107x    frame=  215 fps=8.1 q=51.0 size=       1kB time=00:00:02.84 bitrate=   2.1kbits/s speed=0.107x    frame=  219 fps=8.1 q=51.0 size=       1kB time=00:00:02.92 bitrate=   2.0kbits/s speed=0.108x    frame=  224 fps=8.1 q=51.0 size=       1kB time=00:00:03.02 bitrate=   1.9kbits/s speed=0.109x    frame=  227 fps=8.0 q=51.0 size=       1kB time=00:00:03.08 bitrate=   1.9kbits/s speed=0.109x    frame=  232 fps=8.0 q=51.0 size=       1kB time=00:00:03.18 bitrate=   1.9kbits/s speed=0.109x    frame=  236 fps=8.0 q=51.0 size=       1kB time=00:00:03.26 bitrate=   1.8kbits/s speed=0.11x    frame=  239 fps=7.9 q=51.0 size=       1kB time=00:00:03.32 bitrate=   1.8kbits/s speed=0.11x    frame=  244 fps=7.9 q=51.0 size=       1kB time=00:00:03.42 bitrate=   1.7kbits/s speed=0.111x    frame=  247 fps=7.9 q=51.0 size=       1kB time=00:00:03.48 bitrate=   1.7kbits/s speed=0.111x    frame=  251 fps=7.9 q=51.0 size=       1kB time=00:00:03.56 bitrate=   1.7kbits/s speed=0.112x    frame=  254 fps=7.8 q=51.0 size=       1kB time=00:00:03.62 bitrate=   1.6kbits/s speed=0.111x    frame=  260 fps=7.8 q=51.0 size=       1kB time=00:00:03.74 bitrate=   1.6kbits/s speed=0.112x    frame=  266 fps=7.7 q=51.0 size=       1kB time=00:00:03.86 bitrate=   1.5kbits/s speed=0.112x    frame=  271 fps=7.8 q=51.0 size=       1kB time=00:00:03.96 bitrate=   1.5kbits/s speed=0.113x    frame=  274 fps=7.7 q=51.0 size=       1kB time=00:00:04.02 bitrate=   1.5kbits/s speed=0.113x    frame=  278 fps=7.7 q=51.0 size=       1kB time=00:00:04.10 bitrate=   1.4kbits/s speed=0.113x    frame=  281 fps=7.7 q=51.0 size=       1kB time=00:00:04.16 bitrate=   1.4kbits/s speed=0.113x    frame=  286 fps=7.7 q=51.0 size=       1kB time=00:00:04.26 bitrate=   1.4kbits/s speed=0.114x    frame=  289 fps=7.6 q=51.0 size=       1kB time=00:00:04.32 bitrate=   1.4kbits/s speed=0.114x    frame=  294 fps=7.6 q=51.0 size=       1kB time=00:00:04.42 bitrate=   1.3kbits/s speed=0.115x    frame=  298 fps=7.6 q=51.0 size=       1kB time=00:00:04.50 bitrate=   1.3kbits/s speed=0.115x    frame=  303 fps=7.6 q=51.0 size=       1kB time=00:00:04.60 bitrate=   1.3kbits/s speed=0.115x    frame=  306 fps=7.6 q=51.0 size=       1kB time=00:00:04.66 bitrate=   1.3kbits/s speed=0.115x    frame=  312 fps=7.5 q=51.0 size=       1kB time=00:00:04.78 bitrate=   1.2kbits/s speed=0.115x    frame=  318 fps=7.5 q=51.0 size=       1kB time=00:00:04.90 bitrate=   1.2kbits/s speed=0.116x    frame=  325 fps=7.6 q=51.0 size=     882kB time=00:00:05.04 bitrate=1433.0kbits/s speed=0.118x    frame=  331 fps=7.6 q=51.0 size=     882kB time=00:00:05.16 bitrate=1399.7kbits/s speed=0.118x    frame=  335 fps=7.5 q=51.0 size=     882kB time=00:00:05.24 bitrate=1378.4kbits/s speed=0.118x    frame=  339 fps=7.5 q=51.0 size=     882kB time=00:00:05.32 bitrate=1357.6kbits/s speed=0.118x    frame=  343 fps=7.5 q=51.0 size=     882kB time=00:00:05.40 bitrate=1337.5kbits/s speed=0.118x    frame=  348 fps=7.5 q=51.0 size=     882kB time=00:00:05.50 bitrate=1313.2kbits/s speed=0.119x    frame=  351 fps=7.5 q=51.0 size=     882kB time=00:00:05.56 bitrate=1299.0kbits/s speed=0.118x    frame=  356 fps=7.5 q=51.0 size=     882kB time=00:00:05.66 bitrate=1276.1kbits/s speed=0.119x    frame=  360 fps=7.5 q=51.0 size=     882kB time=00:00:05.74 bitrate=1258.3kbits/s speed=0.119x    frame=  364 fps=7.5 q=51.0 size=     882kB time=00:00:05.82 bitrate=1241.0kbits/s speed=0.119x    frame=  368 fps=7.4 q=51.0 size=     882kB time=00:00:05.90 bitrate=1224.2kbits/s speed=0.119x    frame=  374 fps=7.5 q=51.0 size=     882kB time=00:00:06.02 bitrate=1199.8kbits/s speed=0.12x    frame=  375 fps=7.4 q=51.0 size=     882kB time=00:00:06.04 bitrate=1195.8kbits/s speed=0.119x    frame=  381 fps=7.4 q=51.0 size=     882kB time=00:00:06.16 bitrate=1172.5kbits/s speed=0.12x    frame=  384 fps=7.4 q=51.0 size=     882kB time=00:00:06.22 bitrate=1161.2kbits/s speed=0.12x    frame=  388 fps=7.4 q=51.0 size=     882kB time=00:00:06.30 bitrate=1146.5kbits/s speed=0.12x    frame=  391 fps=7.3 q=51.0 size=     882kB time=00:00:06.36 bitrate=1135.7kbits/s speed=0.12x    frame=  395 fps=7.3 q=51.0 size=     882kB time=00:00:06.44 bitrate=1121.6kbits/s speed=0.12x    frame=  399 fps=7.3 q=51.0 size=     882kB time=00:00:06.52 bitrate=1107.8kbits/s speed=0.12x    frame=  403 fps=7.3 q=51.0 size=     882kB time=00:00:06.60 bitrate=1094.4kbits/s speed=0.12x    frame=  408 fps=7.3 q=51.0 size=     882kB time=00:00:06.70 bitrate=1078.0kbits/s speed=0.12x    frame=  411 fps=7.3 q=51.0 size=     882kB time=00:00:06.76 bitrate=1068.5kbits/s speed=0.12x    frame=  415 fps=7.3 q=52.0 size=     882kB time=00:00:06.84 bitrate=1056.0kbits/s speed=0.12x    frame=  418 fps=7.3 q=52.0 size=     882kB time=00:00:06.90 bitrate=1046.8kbits/s speed=0.12x    frame=  422 fps=7.3 q=52.0 size=     882kB time=00:00:06.98 bitrate=1034.8kbits/s speed=0.12x    frame=  426 fps=7.3 q=52.0 size=     882kB time=00:00:07.06 bitrate=1023.1kbits/s speed=0.12x    frame=  428 fps=7.2 q=52.0 size=     882kB time=00:00:07.10 bitrate=1017.3kbits/s speed=0.12x    frame=  434 fps=7.2 q=52.0 size=     882kB time=00:00:07.22 bitrate=1000.4kbits/s speed=0.12x    frame=  440 fps=7.2 q=52.0 size=     882kB time=00:00:07.34 bitrate= 984.1kbits/s speed=0.12x    frame=  446 fps=7.2 q=52.0 size=     882kB time=00:00:07.46 bitrate= 968.2kbits/s speed=0.12x    frame=  453 fps=7.2 q=52.0 size=     882kB time=00:00:07.60 bitrate= 950.4kbits/s speed=0.12x    frame=  458 fps=7.2 q=52.0 size=     882kB time=00:00:07.70 bitrate= 938.1kbits/s speed=0.12x    frame=  463 fps=7.2 q=52.0 size=     882kB time=00:00:07.80 bitrate= 926.0kbits/s speed=0.121x    frame=  467 fps=7.1 q=52.0 size=     882kB time=00:00:07.88 bitrate= 916.6kbits/s speed=0.121x    frame=  471 fps=7.1 q=52.0 size=     882kB time=00:00:07.96 bitrate= 907.4kbits/s speed=0.121x    frame=  475 fps=7.1 q=52.0 size=     882kB time=00:00:08.04 bitrate= 898.4kbits/s speed=0.121x    frame=  479 fps=7.1 q=52.0 size=     882kB time=00:00:08.12 bitrate= 889.5kbits/s speed=0.121x    frame=  483 fps=7.1 q=52.0 size=     882kB time=00:00:08.20 bitrate= 880.9kbits/s speed=0.121x    frame=  488 fps=7.1 q=52.0 size=     882kB time=00:00:08.30 bitrate= 870.3kbits/s speed=0.121x    frame=  491 fps=7.1 q=52.0 size=     882kB time=00:00:08.36 bitrate= 864.0kbits/s speed=0.121x    frame=  495 fps=7.1 q=52.0 size=     882kB time=00:00:08.44 bitrate= 855.8kbits/s speed=0.121x    frame=  498 fps=7.1 q=52.0 size=     882kB time=00:00:08.50 bitrate= 849.8kbits/s speed=0.121x    frame=  500 fps=6.2 q=-1.0 Lsize=    1900kB time=00:00:09.94 bitrate=1565.8kbits/s speed=0.124x    
video:1896kB audio:0kB subtitle:0kB other streams:0kB global headers:0kB muxing overhead: 0.224891%
bench: utime=303.680s
bench: maxrss=2605436kB
[libx264 @ 0x2b17120] frame I:3     Avg QP:47.09  size: 38458
[libx264 @ 0x2b17120] frame P:138   Avg QP:49.53  size:  5718
[libx264 @ 0x2b17120] frame B:359   Avg QP:50.06  size:  2886
[libx264 @ 0x2b17120] consecutive B-frames:  1.0%  2.0% 23.4% 73.6%
[libx264 @ 0x2b17120] mb I  I16..4: 30.2% 69.7%  0.1%
[libx264 @ 0x2b17120] mb P  I16..4:  0.4%  0.5%  0.0%  P16..4:  8.9%  0.1%  0.6%  0.0%  0.0%    skip:89.5%
[libx264 @ 0x2b17120] mb B  I16..4:  0.0%  0.0%  0.0%  B16..8: 14.8%  0.0%  0.0%  direct: 0.0%  skip:85.2%  L0:27.4% L1:72.6% BI: 0.0%
[libx264 @ 0x2b17120] final ratefactor: 43.87
[libx264 @ 0x2b17120] 8x8 transform intra:65.2% inter:98.7%
[libx264 @ 0x2b17120] direct mvs  spatial:99.2% temporal:0.8%
[libx264 @ 0x2b17120] coded y,uvDC,uvAC intra: 5.7% 11.8% 0.6% inter: 0.1% 0.3% 0.0%
[libx264 @ 0x2b17120] i16 v,h,dc,p: 33% 43%  2% 22%
[libx264 @ 0x2b17120] i8 v,h,dc,ddl,ddr,vr,hd,vl,hu: 18%  3% 58%  3%  5%  2%  5%  2%  4%
[libx264 @ 0x2b17120] i4 v,h,dc,ddl,ddr,vr,hd,vl,hu:  2%  2%  5% 12% 15% 13% 17%  9% 25%
[libx264 @ 0x2b17120] i8c dc,h,v,p: 56% 40%  4%  1%
[libx264 @ 0x2b17120] Weighted P-Frames: Y:0.7% UV:0.0%
[libx264 @ 0x2b17120] ref P L0: 75.0%  0.4% 11.9%  3.1%  2.9%  2.8%  2.6%  1.3%  0.0%
[libx264 @ 0x2b17120] ref B L0: 97.0%  0.8%  1.1%  0.5%  0.3%  0.2%  0.1%
[libx264 @ 0x2b17120] ref B L1: 99.5%  0.5%
[libx264 @ 0x2b17120] kb/s:1552.55
